PathFileType	4	(X/Y/Z)	C:/Users/opensim2020/Desktop/walking_exp_matlab/subject06_walking16_straight_02.trc																																																																																																																																																							
DataRate	CameraRate	NumFrames	NumMarkers	Units	OrigDataRate	OrigDataStartFrame	OrigNumFrames																																																																																																																																																			
100	100	4	51	mm	100	2130	283																																																																																																																																																			
Frame#	Time	LFHD			RFHD			LBHD			RBHD			C7			T10			CLAV			STRN			RBAK			LSHO			LUPA			LELB			LFRM			LWRA			LWRB			LFIN			RSHO			RUPA			RELB			RFRM			RWRA			RWRB			RFIN			LASI			RASI			LPSI			RPSI			LTHI			LKNE			LTIB			LANK			LHEE			LTOE			RTHI			RKNE			RTIB			RANK			RHEE			RTOE			*39			*40			*41			*42			*43			*44			*45			*46			*47			*48			*49			*50		
		X1	Y1	Z1	X2	Y2	Z2	X3	Y3	Z3	X4	Y4	Z4	X5	Y5	Z5	X6	Y6	Z6	X7	Y7	Z7	X8	Y8	Z8	X9	Y9	Z9	X10	Y10	Z10	X11	Y11	Z11	X12	Y12	Z12	X13	Y13	Z13	X14	Y14	Z14	X15	Y15	Z15	X16	Y16	Z16	X17	Y17	Z17	X18	Y18	Z18	X19	Y19	Z19	X20	Y20	Z20	X21	Y21	Z21	X22	Y22	Z22	X23	Y23	Z23	X24	Y24	Z24	X25	Y25	Z25	X26	Y26	Z26	X27	Y27	Z27	X28	Y28	Z28	X29	Y29	Z29	X30	Y30	Z30	X31	Y31	Z31	X32	Y32	Z32	X33	Y33	Z33	X34	Y34	Z34	X35	Y35	Z35	X36	Y36	Z36	X37	Y37	Z37	X38	Y38	Z38	X39	Y39	Z39	X40	Y40	Z40	X41	Y41	Z41	X42	Y42	Z42	X43	Y43	Z43	X44	Y44	Z44	X45	Y45	Z45	X46	Y46	Z46	X47	Y47	Z47	X48	Y48	Z48	X49	Y49	Z49	X50	Y50	Z50	X51	Y51	Z51
																																																																																																																																																										
177	1.76	-60.76233	1642.14404	-1493.06531	-61.78243	1628.47168	-1361.3844	-195.27164	1589.2157	-1494.64111	-194.96609	1580.89929	-1365.03491	-199.02798	1431.82935	-1432.5979	-234.81461	1101.72473	-1421.38123	-91.73592	1351.96033	-1438.71741	-55.12142	1177.01465	-1442.88843	-267.37833	1263.8623	-1341.36304	-158.87465	1382.44141	-1597.05371	-205.50336	1184.17908	-1659.80029	-235.80727	1075.38757	-1662.85596	-243.88129	923.95715	-1675.48132	-209.65741	802.29523	-1624.45215	-270.17694	807.41315	-1662.7915	-246.66975	719.58624	-1656.84583	-120.28597	1386.99377	-1275.03516	-148.13557	1190.66553	-1178.13757	-135.51399	1069.13562	-1165.38391	-101.20056	953.76263	-1155.27063	-25.20098	829.49396	-1202.89819	-71.67471	819.41327	-1154.8645	-21.91614	751.77393	-1163.76477	-50.388	949.91034	-1537.99463	-55.36684	943.27667	-1315.89734	-210.29111	970.36377	-1515.64172	-207.51616	968.86731	-1346.46155	-52.01103	641.84442	-1609.14587	-0.93118	490.14478	-1581.17456	28.90247	236.26836	-1578.0376	70.1376	69.17604	-1540.95447	33.94868	49.99363	-1494.09131	217.84442	59.23288	-1535.43701	-154.26292	612.32562	-1276.08252	-179.42186	487.45923	-1297.00623	-338.42917	266.68173	-1290.34131	-444.92526	111.01472	-1326.67639	-497.64209	104.08987	-1364.95728	-316.13214	34.85271	-1351.42493	-161.09142	1680.13135	-1433.15271	NaN	NaN	NaN	NaN	NaN	NaN	NaN	NaN	NaN	NaN	NaN	NaN	NaN	NaN	NaN	NaN	NaN	NaN	NaN	NaN	NaN	NaN	NaN	NaN	NaN	NaN	NaN	NaN	NaN	NaN	NaN	NaN	NaN
178	1.77	-52.50409	1642.26648	-1494.44788	-53.65879	1628.58191	-1362.88831	-186.81961	1589.18726	-1496.45068	-186.81714	1580.82446	-1366.80127	-190.72878	1431.81152	-1434.4856	-225.38089	1101.23083	-1422.71619	-83.34131	1351.99719	-1440.328	-46.27747	1177.08813	-1444.36536	-259.03101	1263.32727	-1343.64502	-150.13168	1382.099	-1598.94189	-196.43921	1183.62952	-1661.67139	-226.69147	1074.78467	-1664.67859	-234.80119	923.36627	-1677.22656	-200.70503	801.72198	-1626.00049	-261.22028	806.84088	-1664.49036	-237.72127	719.03503	-1658.40186	-112.30202	1386.72083	-1276.53564	-140.13277	1190.15076	-1179.9447	-127.33295	1068.61279	-1167.08386	-93.10768	953.16559	-1156.95654	-17.3602	828.67712	-1204.35095	-64.047	818.77441	-1156.27185	-13.90904	751.2392	-1165.07874	-40.49979	950.10773	-1539.37268	-45.60469	942.94067	-1317.14697	-200.45625	970.46832	-1517.02185	-197.55435	968.43213	-1347.84985	-41.63436	642.58771	-1610.56995	8.78366	490.77979	-1582.65491	34.98288	236.5323	-1579.01489	72.51309	68.51583	-1541.6936	35.88059	50.93344	-1495.16541	219.8829	53.86414	-1534.53772	-144.83157	611.76978	-1277.18811	-169.58667	486.89682	-1297.99097	-332.37582	268.90527	-1290.8772	-441.85904	115.35487	-1326.75098	-494.47464	109.8955	-1365.05127	-316.03799	34.96302	-1351.5813	-152.92624	1680.12329	-1434.8728	NaN	NaN	NaN	NaN	NaN	NaN	NaN	NaN	NaN	NaN	NaN	NaN	NaN	NaN	NaN	NaN	NaN	NaN	NaN	NaN	NaN	NaN	NaN	NaN	NaN	NaN	NaN	NaN	NaN	NaN	NaN	NaN	NaN
179	1.78	-44.07585	1642.70679	-1495.97107	-45.64694	1629.04138	-1364.35352	-178.3707	1589.57178	-1498.3269	-178.65495	1581.07922	-1368.62158	-182.33333	1432.17688	-1436.23938	-215.9866	1101.11926	-1423.98999	-74.91175	1352.48438	-1441.89514	-37.43739	1177.5824	-1445.90259	-250.53122	1263.10559	-1345.75317	-141.34909	1382.04199	-1600.78284	-187.0795	1183.3446	-1663.56128	-217.21291	1074.39893	-1666.66736	-225.3046	922.94183	-1679.03027	-191.3649	801.48096	-1627.77991	-251.82466	806.46045	-1666.30652	-228.37123	718.70856	-1660.15234	-104.15148	1386.81201	-1277.98352	-132.129	1189.93652	-1181.88843	-119.08611	1068.39478	-1168.84778	-85.08805	952.81165	-1158.72522	-9.11528	828.33142	-1205.63013	-56.33981	818.35638	-1157.91724	-6.29035	750.88739	-1166.31396	-30.5592	950.77289	-1540.83704	-35.64537	942.8988	-1318.547	-190.77315	971.20111	-1518.22632	-187.42842	968.30835	-1349.03125	-31.12504	644.12213	-1612.08154	18.68882	491.84338	-1584.07898	40.64061	237.31288	-1580.32239	76.00108	68.7483	-1542.33752	37.99537	52.10857	-1496.02966	222.38806	50.97398	-1533.8136	-134.34764	611.42889	-1278.49658	-159.02315	486.41559	-1299.0199	-325.59622	271.45374	-1291.52234	-438.21249	120.11234	-1326.79248	-490.72781	116.29585	-1365.13391	-315.69772	35.05489	-1351.88977	-144.64467	1680.47974	-1436.62317	NaN	NaN	NaN	NaN	NaN	NaN	NaN	NaN	NaN	NaN	NaN	NaN	NaN	NaN	NaN	NaN	NaN	NaN	NaN	NaN	NaN	NaN	NaN	NaN	NaN	NaN	NaN	NaN	NaN	NaN	NaN	NaN	NaN
180	1.79	-35.66616	1643.36182	-1497.49426	-37.52984	1629.67004	-1365.88721	-169.95757	1590.22583	-1500.12061	-170.51871	1581.79944	-1370.46704	-174.07047	1432.7124	-1438	-206.58301	1101.3772	-1425.1687	-66.49591	1353.21118	-1443.4696	-28.42003	1178.38171	-1447.46277	-241.98949	1263.23145	-1347.75146	-132.53961	1382.31067	-1602.54358	-177.50797	1183.35242	-1665.43848	-207.39529	1074.31445	-1668.68738	-215.29669	922.91541	-1681.08447	-181.81297	801.30469	-1629.44556	-241.92227	806.38141	-1668.42883	-218.60968	718.63092	-1662.03223	-96.00453	1387.27075	-1279.47119	-124.15225	1190.08044	-1183.9447	-110.70873	1068.55493	-1170.87769	-77.14072	952.77802	-1160.61841	-1.68103	827.99683	-1207.04895	-48.98867	818.24023	-1159.61597	1.01375	750.76862	-1167.44446	-20.61335	951.98352	-1542.42493	-25.49826	943.19177	-1320.18811	-181.10001	972.22278	-1519.24329	-177.31989	968.48883	-1350.15552	-20.82856	646.05688	-1613.18286	28.27033	493.10596	-1585.27344	46.80489	238.1463	-1581.64355	78.02627	68.76402	-1542.39832	39.90409	52.83482	-1496.69397	224.32997	49.09618	-1533.62683	-123.53049	611.33209	-1279.7998	-147.77336	486.2359	-1300.0011	-318.14557	274.3064	-1292.15198	-434.00018	125.48408	-1326.77417	-486.23401	123.35107	-1365.24219	-315.35678	35.18834	-1352.11462	-136.39452	1681.14551	-1438.31262	NaN	NaN	NaN	NaN	NaN	NaN	NaN	NaN	NaN	NaN	NaN	NaN	NaN	NaN	NaN	NaN	NaN	NaN	NaN	NaN	NaN	NaN	NaN	NaN	NaN	NaN	NaN	NaN	NaN	NaN	NaN	NaN	NaN
